<?xml version="1.0" encoding="UTF-8" standalone="no"?>
<!-- Generator: Adobe Illustrator 15.0.0, SVG Export Plug-In . SVG Version: 6.00 Build 0)  -->

<svg
   xmlns:dc="http://purl.org/dc/elements/1.1/"
   xmlns:cc="http://creativecommons.org/ns#"
   xmlns:rdf="http://www.w3.org/1999/02/22-rdf-syntax-ns#"
   xmlns:svg="http://www.w3.org/2000/svg"
   xmlns="http://www.w3.org/2000/svg"
   xmlns:sodipodi="http://sodipodi.sourceforge.net/DTD/sodipodi-0.dtd"
   xmlns:inkscape="http://www.inkscape.org/namespaces/inkscape"
   version="1.1"
   id="Calque_1"
   x="0px"
   y="0px"
   width="595.28003"
   height="280.89001"
   viewBox="0 0 595.28 280.89001"
   enable-background="new 0 0 595.28 841.89"
   xml:space="preserve"
   inkscape:version="0.48.4 r9939"
   sodipodi:docname="logo.svg"><metadata
   id="metadata3039"><rdf:RDF><cc:Work
       rdf:about=""><dc:format>image/svg+xml</dc:format><dc:type
         rdf:resource="http://purl.org/dc/dcmitype/StillImage" /></cc:Work></rdf:RDF></metadata><defs
   id="defs3037" /><sodipodi:namedview
   pagecolor="#ffffff"
   bordercolor="#666666"
   borderopacity="1"
   objecttolerance="10"
   gridtolerance="10"
   guidetolerance="10"
   inkscape:pageopacity="0"
   inkscape:pageshadow="2"
   inkscape:window-width="1920"
   inkscape:window-height="1138"
   id="namedview3035"
   showgrid="false"
   inkscape:zoom="1.0939671"
   inkscape:cx="297.64001"
   inkscape:cy="91.867477"
   inkscape:window-x="-8"
   inkscape:window-y="-8"
   inkscape:window-maximized="1"
   inkscape:current-layer="Calque_1" />
<g
   id="g3014"
   transform="matrix(1.1303088,0,0,1.1303088,-40.587477,-6.440977)">
	<g
   id="septre">
		<path
   clip-rule="evenodd"
   d="m 299.447,17.879 c -3.375,0.168 -6.3,2.385 -8.775,6.65 v 0.05 c -2.975,5.087 -4.466,11.237 -4.475,18.45 0.009,7.165 1.5,13.29 4.475,18.375 v 0.05 c 2.331,4.057 5.081,6.273 8.25,6.65 0.175,0 0.35,0 0.525,0 3.423,-0.163 6.372,-2.38 8.851,-6.65 2.928,-5.101 4.395,-11.242 4.4,-18.425 -0.006,-7.231 -1.473,-13.398 -4.4,-18.5 -2.479,-4.27 -5.428,-6.487 -8.851,-6.65 z m -14.574,3.3 c 3.971,-6.845 8.829,-10.179 14.575,-10 5.798,-0.173 10.683,3.16 14.649,10 3.531,6.016 5.297,13.299 5.301,21.85 -0.004,8.499 -1.77,15.757 -5.301,21.775 -3.619,6.25 -8.002,9.576 -13.149,9.975 v 149.625 c -0.007,0.615 -0.232,1.141 -0.675,1.574 -0.435,0.436 -0.96,0.652 -1.575,0.65 -0.607,0.002 -1.124,-0.215 -1.55,-0.65 -0.443,-0.434 -0.668,-0.959 -0.675,-1.574 V 74.579 c -4.491,-0.883 -8.357,-4.142 -11.6,-9.775 v 0.025 c -3.583,-6.025 -5.375,-13.292 -5.375,-21.8 0,-8.561 1.792,-15.853 5.375,-21.875 v 0.025 z"
   id="path3017"
   inkscape:connector-curvature="0"
   style="fill:#cdcccc;fill-rule:evenodd" />
	</g>
	<g
   id="coupole">
		<path
   clip-rule="evenodd"
   d="m 561.122,138.379 c -89.607,25.446 -177.084,38.538 -262.424,39.276 -32.45,0.303 -79.958,-4.432 -142.525,-14.201 -58.199,-9.033 -97.916,-17.125 -119.15,-24.274 37.664,7.646 81.355,13.704 131.075,18.175 44.302,4.02 87.835,6.328 130.6,6.926 45.399,0.639 88.59,-1.127 129.575,-5.301 38.453,-3.915 82.736,-10.782 132.849,-20.601 z"
   id="path3020"
   inkscape:connector-curvature="0"
   style="fill:#8c8c8c;fill-rule:evenodd" />
		
			<path
   clip-rule="evenodd"
   stroke-miterlimit="3"
   d="m 561.122,138.379 c -89.607,25.446 -177.084,38.538 -262.424,39.276 -32.45,0.303 -79.958,-4.432 -142.525,-14.201 -58.199,-9.033 -97.916,-17.125 -119.15,-24.274 37.664,7.646 81.355,13.704 131.075,18.175 44.302,4.02 87.835,6.328 130.6,6.926 45.399,0.639 88.59,-1.127 129.575,-5.301 38.453,-3.915 82.736,-10.782 132.849,-20.601 z"
   id="path3022"
   inkscape:connector-curvature="0"
   style="fill:none;stroke:#8c8c8c;stroke-linecap:round;stroke-linejoin:round;stroke-miterlimit:3" />
	</g>
	<g
   id="serpent">
		<path
   clip-rule="evenodd"
   d="m 307.772,233.329 c 4.473,-5.008 6.363,-9.99 5.676,-14.949 -0.801,-5.557 -4.775,-8.807 -11.926,-9.75 l -0.075,-4.775 3.726,0.6 c 2.93,0.645 5.488,1.535 7.674,2.676 6.895,3.723 8.678,9.355 5.352,16.9 -2.184,4.965 -6.5,9.908 -12.951,14.824 -4.163,3.268 -10.063,6.709 -17.7,10.324 9.52,-6.102 16.262,-11.386 20.224,-15.85 z m -62.199,-57 c 0.001,-2.13 0.176,-3.914 0.525,-5.35 2.081,-11.068 10.39,-20.151 24.925,-27.25 6.101,-2.979 14.459,-5.362 25.075,-7.15 l -0.15,13.701 c -6.3,1.24 -12.55,3.523 -18.75,6.85 -7.342,3.922 -12.5,8.539 -15.475,13.85 -2.083,3.67 -3.1,7.686 -3.05,12.051 1.635,9.873 8.801,16.322 21.5,19.35 3.224,0.746 8.458,1.047 15.7,0.9 v 4.898 c -11.159,-0.295 -19.192,-1.238 -24.1,-2.824 -17.615,-5.806 -26.349,-15.481 -26.2,-29.026 z"
   id="path3025"
   inkscape:connector-curvature="0"
   style="fill:#263e99;fill-rule:evenodd" />
		
			<path
   clip-rule="evenodd"
   stroke-miterlimit="3"
   d="m 245.573,176.329 c -0.148,13.545 8.585,23.221 26.2,29.025 4.908,1.586 12.941,2.529 24.1,2.824 v -4.898 c -7.243,0.146 -12.476,-0.154 -15.7,-0.9 -12.699,-3.027 -19.865,-9.477 -21.5,-19.35 -0.05,-4.365 0.967,-8.381 3.05,-12.051 2.975,-5.311 8.133,-9.928 15.475,-13.85 6.2,-3.326 12.45,-5.609 18.75,-6.85 l 0.15,-13.701 c -10.616,1.788 -18.974,4.171 -25.075,7.15 -14.535,7.099 -22.844,16.182 -24.925,27.25 -0.349,1.437 -0.524,3.221 -0.525,5.351 z m 62.199,57 c -3.963,4.465 -10.705,9.748 -20.225,15.85 7.637,-3.615 13.537,-7.057 17.7,-10.324 6.451,-4.916 10.768,-9.859 12.951,-14.824 3.326,-7.545 1.543,-13.178 -5.352,-16.9 -2.186,-1.141 -4.744,-2.031 -7.674,-2.676 l -3.726,-0.6 0.075,4.775 c 7.15,0.943 11.125,4.193 11.926,9.75 0.689,4.958 -1.202,9.941 -5.675,14.949 z"
   id="path3027"
   inkscape:connector-curvature="0"
   style="fill:none;stroke:#263e99;stroke-linecap:round;stroke-linejoin:round;stroke-miterlimit:3" />
	</g>
	<g
   id="serpenttete">
		<path
   clip-rule="evenodd"
   d="m 266.772,83.804 c 1.692,-0.592 3.383,-1.158 5.075,-1.7 0.242,-0.098 3.758,-1.04 10.55,-2.825 8.038,-1.735 15.63,-2.602 22.775,-2.6 22.576,-0.001 36.844,8.457 42.799,25.375 4.568,12.948 -1.506,24.556 -18.225,34.825 -5.264,3.273 -11.398,6.248 -18.4,8.925 l -9.899,3.35 v -13.4 l 8.351,-2.225 c 5.703,-1.735 10.736,-3.693 15.1,-5.875 13.643,-6.901 18.775,-14.967 15.4,-24.2 -5.004,-13.639 -16.979,-20.506 -35.926,-20.6 -6.053,-0.053 -12.578,0.614 -19.575,2 -6.153,1.486 -9.554,2.303 -10.2,2.45 -0.75,0.8 -1.5,1.6 -2.25,2.4 -0.642,0.642 -1.309,1.258 -2,1.85 -0.592,0.499 -1.234,0.924 -1.925,1.275 -1.092,0.448 -2.233,0.673 -3.425,0.675 -0.942,0.292 -1.883,0.583 -2.825,0.875 -1.141,-0.047 -2.183,0.228 -3.125,0.825 -1.841,1.093 -3.607,2.31 -5.3,3.65 0.002,-0.941 0.277,-1.858 0.825,-2.75 0.542,-0.941 1.108,-1.858 1.7,-2.75 0.949,-1.292 1.699,-2.634 2.25,-4.025 0.645,-1.837 1.712,-3.104 3.2,-3.8 1.734,-0.699 3.417,-1.274 5.05,-1.725 z"
   id="path3030"
   inkscape:connector-curvature="0"
   style="fill:#263e99;fill-rule:evenodd" />
		
			<path
   clip-rule="evenodd"
   stroke-miterlimit="3"
   d="m 266.772,83.804 c -1.634,0.451 -3.317,1.026 -5.05,1.725 -1.488,0.696 -2.555,1.962 -3.2,3.8 -0.551,1.391 -1.301,2.733 -2.25,4.025 -0.591,0.892 -1.158,1.809 -1.7,2.75 -0.548,0.892 -0.823,1.809 -0.825,2.75 1.692,-1.34 3.459,-2.557 5.3,-3.65 0.942,-0.598 1.984,-0.873 3.125,-0.825 0.942,-0.292 1.883,-0.583 2.825,-0.875 1.191,-0.001 2.333,-0.227 3.425,-0.675 0.691,-0.351 1.333,-0.776 1.925,-1.275 0.691,-0.592 1.358,-1.208 2,-1.85 0.75,-0.8 1.5,-1.6 2.25,-2.4 0.646,-0.147 4.046,-0.964 10.2,-2.45 6.997,-1.386 13.521,-2.053 19.575,-2 18.947,0.094 30.922,6.961 35.926,20.6 3.375,9.233 -1.758,17.299 -15.4,24.2 -4.363,2.182 -9.396,4.14 -15.1,5.875 l -8.351,2.225 v 13.4 l 9.899,-3.35 c 7.002,-2.677 13.137,-5.652 18.4,-8.925 16.719,-10.269 22.793,-21.877 18.225,-34.825 -5.955,-16.918 -20.223,-25.376 -42.799,-25.375 -7.146,-0.002 -14.737,0.865 -22.775,2.6 -6.792,1.785 -10.308,2.727 -10.55,2.825 -1.691,0.542 -3.383,1.108 -5.075,1.7 z"
   id="path3032"
   inkscape:connector-curvature="0"
   style="fill:none;stroke:#263e99;stroke-linecap:round;stroke-linejoin:round;stroke-miterlimit:3" />
	</g>
	<g
   id="Calque_1_1_"
   display="none"
   style="display:none">
	</g>
</g>
</svg>